<svg width="200" height="200" viewBox="0 0 200 200" fill="none" xmlns="http://www.w3.org/2000/svg">
<path d="M100 193.328C118.389 193.328 133.297 186.452 133.297 177.969C133.297 169.486 118.389 162.609 100 162.609C81.6106 162.609 66.7031 169.486 66.7031 177.969C66.7031 186.452 81.6106 193.328 100 193.328Z" fill="#D44A28"/>
<path d="M155.516 135.078C155.516 158.172 130.656 183.297 100 183.297C69.3437 183.297 44.4844 158.172 44.4844 135.078C44.4844 111.984 155.516 111.984 155.516 135.078Z" fill="#ED603A"/>
<path d="M100 147.453C130.315 147.453 154.891 140.234 154.891 131.328C154.891 122.423 130.315 115.203 100 115.203C69.6847 115.203 45.1094 122.423 45.1094 131.328C45.1094 140.234 69.6847 147.453 100 147.453Z" fill="#FF8A65"/>
<path d="M146.422 130.234C146.422 135.344 129.016 141 100 141C71.4531 141 53.5781 135.344 53.5781 130.234C53.5781 125.125 74.3594 119.047 100 119.047C125.641 119.047 146.422 125.141 146.422 130.234Z" fill="#5D4037"/>
<path opacity="0.18" d="M154.828 132.047C154.859 131.812 154.891 131.562 154.891 131.328C154.891 122.422 130.312 115.203 100 115.203C69.6875 115.203 45.1094 122.422 45.1094 131.328C45.1094 131.562 45.1406 131.812 45.1719 132.047C44.7188 133.016 44.4844 134.031 44.4844 135.078C44.4844 145.687 49.375 155.641 56.6875 163.75C57.7344 164.906 71.5938 161.625 80.5156 156.328C97.625 146.188 111.266 140.672 111.266 140.672C111.266 140.672 104.813 140.969 99.9844 140.969C71.4375 140.969 53.5625 135.312 53.5625 130.203C53.5625 125.094 74.3438 119.016 99.9844 119.016C125.625 119.016 146.406 125.094 146.406 130.203C146.406 133.828 137.609 137.734 122.125 139.687C123.563 139.672 125.844 139.875 128.594 140.969C136.984 144.281 148.266 158.484 151.297 152C153.938 146.328 155.5 141.562 155.5 135.047C155.516 134.016 155.266 133 154.828 132.047Z" fill="#212121"/>
<path d="M133.734 73.0156C133.797 72.5625 134.062 70.2969 130.578 69.6406C127.093 68.9844 124.312 69.25 124.312 69.25L122.328 63.6094C123.843 58.4844 126.359 56.0938 124.218 50.8125C123.718 49.5938 121.047 48.875 118.843 49.5C118.843 49.5 116.656 49.4375 114.765 50.7656C113.14 51.9219 106.297 57.7031 105.125 54.3125C104.64 52.9062 105.343 52.0625 108.328 49.9219C111 48.0156 113.968 46.4062 116.312 44.0938C120.328 40.1094 117.797 34.5156 117.797 34.5156C117.797 34.5156 114.609 33.3125 112.062 35.25C110.125 36.7188 108.609 37.5625 107.703 38.1719C103.281 41.1406 103 36.8281 105.812 35.1562L111.031 31.6406C116.406 27.9062 114 21.875 114 21.875C114 21.875 112.453 21.3906 110.422 22.7812C109.703 23.2812 108.937 23.9531 107.812 24.5C106.156 25.2969 105.031 25.7187 104.39 24.5781C103.953 23.7969 104.75 22.8438 106.281 21.75C108.031 20.5156 108.984 20.3125 110.203 18.5781C112.093 15.9063 111.593 12.5312 111.093 11.8125C110.609 11.1094 106.843 15.2656 106.156 13.6719C105.625 12.4375 107.312 10.1875 105.515 7C104.172 4.625 101.656 3.54688 101.656 3.54688C99.7341 6.10938 99.4997 10.4375 101.109 13.25C102.093 14.9687 103.218 16.5156 102.203 17.4531C101.484 18.1094 100.562 17.2031 99.0622 16.2188C96.7966 14.75 93.8122 15.9063 93.8122 15.9063C93.8122 15.9063 92.4841 19.75 94.5309 22.2969C96.0153 24.1562 97.2184 24.8594 99.5153 26.7969C101.968 28.8594 100.515 31.2031 97.6091 29.6562C96.5934 29.1094 95.1716 27.9844 93.5934 27.2969C91.2497 26.2656 87.8747 27.8437 87.8747 27.8437C87.8747 27.8437 86.6091 33.6094 89.8278 35.6562C90.9216 36.3594 95.4841 39.4062 97.0309 40.2031C100.234 41.8594 99.4684 45.9062 95.8747 44.2031C93.3122 42.9844 90.5778 40.9375 87.7497 39.7031C83.9997 38.0625 81.4841 39.8125 81.4841 39.8125C81.4841 39.8125 80.3591 44.8438 83.2497 47.6562C85.1559 49.5156 89.7809 52.5469 91.6091 53.6406C93.3747 54.6875 96.1247 55.8438 95.4997 57.1406C93.7966 60.7031 88.3122 58.0938 85.8591 56.7031C81.5153 54.2344 76.9372 52.4844 74.3591 54.5C71.7653 56.5312 73.6559 62.7188 73.5622 65.4375C73.3434 71.4688 78.4372 71.7188 80.2184 76.7656C80.5622 77.75 80.4841 78.8438 80.4216 79.8906C79.9997 86.7812 80.5622 93.75 82.0622 100.484C82.2341 101.25 82.4528 102.078 83.0466 102.578C83.6247 103.078 84.4528 103.172 85.2184 103.234C93.0466 103.922 100.922 104.266 108.781 104.266C114.718 104.266 120.797 104.031 126.281 101.766C127.281 101.344 128.328 100.812 128.875 99.875C129.359 99.0625 125.515 88.4375 126.125 87.7188C129.703 83.4844 133.031 77.75 133.734 73.0156Z" fill="url(#paint0_linear_735_373)"/>
<path d="M189.063 61.7344C188.141 61.625 187.516 61.7969 187.969 60.7969C188.532 59.5312 188.672 59.0781 188.891 58.2031C189.422 55.9844 188.578 54.5 188.578 54.5C188.578 54.5 185.578 54.8438 184.203 57.625C183.485 59.0781 182.453 62.6406 180.719 61.3906C180 60.8594 180.641 59.9844 180.735 58.5469C180.953 55.5 178.563 54.8906 178.563 54.8906C178.563 54.8906 175.61 55.75 174.828 58.4531C174.172 60.75 174.016 62 173.657 64.1094C173.313 66.1406 173.547 67.1406 172.094 67.5156C170.844 67.8437 170.125 66.8906 170.282 65.3594C170.485 63.1719 170.5 61.2812 170.5 61.2812C170.953 57.8906 167.485 57.3437 167.485 57.3437C167.485 57.3437 163.86 57.6563 162.891 61.6719C162.36 63.9062 162.219 64.8125 161.735 67.8281C161.5 69.2656 161.485 71.0938 160.235 72.1875C158.907 73.3438 157.36 72.3125 157.407 69.8125C157.438 67.9687 157.641 66.8281 157.516 64.1094C157.391 61.3906 154.469 61.2187 154.469 61.2187C154.469 61.2187 149.953 63.1563 149.782 67.8125C149.657 71.0625 149.578 76.3906 149.672 77.9062C149.672 77.9062 150.125 80.7187 147.922 81.5781C146.578 82.0781 145.032 81.2344 144.953 78.7812C144.844 75.5156 144.938 75.1875 144.75 71.0469C144.578 67.1719 141.422 66.0625 141.422 66.0625C141.422 66.0625 136.625 66.5938 135.703 71.2188C135.157 73.9219 135.203 85.75 131.297 85.625C126.766 85.4687 117.61 75.5469 114.485 86.8125C113.953 88.7031 112.844 90.4375 111.25 91.5781C109.172 93.0938 106.547 93.5625 104.063 94.2656C95.8597 96.5781 88.719 101.984 83.8128 108.891C81.219 112.547 72.7659 128.188 77.719 131.812C79.4847 133.109 85.2815 132.641 87.6722 132.641C92.969 132.656 98.2503 132.672 103.547 132.672C111.266 132.688 118.969 132.703 126.688 132.734C126.969 131.109 127.032 129.531 126.938 127.984L129.016 128L143.985 128.578C143.985 128.578 147.032 122.797 149.828 121.547C150.203 121.375 155.688 117.328 155.516 116.953C153.328 112.109 141.047 107.469 141.047 107.469C143.032 107.312 145.938 105.062 151.25 107.938C157.578 111.359 161.453 109.797 161.453 109.797C161.453 109.797 162.86 107.688 158.735 102.422C156.578 99.6563 147.063 94.7812 147.063 94.7812C146.032 94.0781 143.297 93.375 144.578 91.3594C145.453 89.9688 149.141 91.1719 152.375 92.9375C155.11 94.4375 154.641 94.6094 160.766 98C164.578 100.109 169.844 98 169.844 98C169.844 98 170.125 93.2344 166.797 90.2031C163.985 87.6406 157.516 83.7656 157.516 83.7656C156.016 82.4844 155.782 81.4531 157 80.7812C158.766 79.8281 160.891 81.1562 162.891 82.1719C164.891 83.1875 170.375 85.875 170.375 85.875C173.469 87.5625 178.235 87.0312 178.235 87.0312C178.235 87.0312 179.297 83.2187 177.782 81.4062C175.594 78.7812 169.297 75.9844 169.297 75.9844C167.719 74.8281 167.313 74.125 168.203 73.1719C169.094 72.2344 169.907 72.25 172.547 73.4844C175.328 74.7969 177.485 75.8594 179.985 76.6719C182.485 77.4844 187.078 75.9375 187.078 75.9375C187.078 75.9375 186.938 72.3906 184.594 70.8281C182.782 69.625 180.594 68.75 180.594 68.75C179.375 68.3281 178.422 67.3594 179.032 66.2188C179.75 64.9062 182.532 66.0312 184.297 66.375C186.875 66.875 188.282 67 190.953 66.0312C192.703 65.3906 193.688 63.5938 193.688 63.5938C193.688 63.5938 193.469 62.2812 189.063 61.7344Z" fill="url(#paint1_radial_735_373)"/>
<path d="M129.281 96.9531C126.953 94.9531 123.797 93.875 120.735 94.2188C119.203 94.3906 117.672 94.875 116.125 94.75C114.578 94.6094 112.938 93.5625 112.86 92.0156C112.813 91 113.422 90.0938 113.953 89.2344C115.344 86.9844 116.36 84.2969 115.735 81.7344C115.11 79.1719 112.281 77.0625 109.813 78C107.469 78.8906 106.703 81.75 105.906 84.125C104.828 87.3594 103.125 90.3906 100.938 93.0156C99.9845 94.1562 98.5783 95.3281 97.1564 94.875C95.1095 94.25 99.3127 82.6094 94.8439 73.0469C93.5002 70.1875 92.3752 67.5938 91.2814 67.5938C89.3908 67.5938 88.7658 74.0156 88.2345 76.3438C87.7658 78.4219 86.7033 82.4062 84.6877 82.6875C83.3439 82.875 81.7033 80.7188 81.2814 79.875C79.8752 77.0938 77.2033 70.125 74.2033 68.5313C71.9064 67.3281 69.1877 68.9688 69.1877 72.8125C69.1877 74.1094 71.9689 82.7188 73.7502 87.5C74.3127 89.0156 71.3127 90.125 69.8283 87.2969C69.8283 87.2969 65.2502 79.6563 63.4533 77.0781C60.7658 73.2031 55.8908 73.9063 55.8908 73.9063C55.8908 73.9063 53.922 77.1094 55.5627 81.7813C56.922 85.6875 56.7814 84.6563 57.9689 87.7031C58.8752 90 57.7814 91.375 56.3595 91.4531C54.0002 91.5312 53.297 88.7813 53.297 88.7813C52.7814 87.3594 50.5939 82.5 49.1877 79.5781C47.172 75.375 42.2658 75.3906 42.2658 75.3906C42.2658 75.3906 39.6408 76.7031 40.6095 79.25C41.5783 81.7969 42.2189 82.7656 42.9845 84.4375C44.0314 86.7188 43.0158 88.2813 41.3439 87.75C39.7814 87.25 39.0314 85.5781 38.2345 84.3438C36.5939 81.7656 36.1095 81 34.7189 79.1719C32.2502 75.875 28.7814 77.0156 28.7814 77.0156C28.7814 77.0156 25.8127 78.9063 27.5783 81.8281C27.5783 81.8281 28.3439 83.5469 29.4064 85.4844C30.1408 86.8281 29.8752 87.9844 28.5939 88.1875C27.1095 88.4219 26.9377 87.4063 25.8127 85.6875C24.6408 83.9063 24.0002 82.8125 22.4845 80.9688C20.6877 78.7969 17.6408 79.1875 17.6408 79.1875C17.6408 79.1875 15.7033 80.6875 17.1095 83.4063C17.7658 84.6875 18.7189 85.2344 18.2658 86C17.1877 87.8438 14.8127 84.9844 13.5783 83.9375C11.2033 81.9375 8.31266 82.8125 8.31266 82.8125C8.31266 82.8125 8.12516 84.5312 9.50016 86.3438C10.047 87.0625 10.3595 87.4219 11.3752 88.3594C12.1877 89.1094 11.547 89.1875 10.7502 89.6563C6.92203 91.9063 7.26578 93.1875 7.26578 93.1875C7.26578 93.1875 8.87516 94.4375 10.7345 94.3438C13.5783 94.1875 14.8127 93.5 16.9845 92.0156C18.4689 91 20.5783 88.8438 21.7502 89.7813C22.7658 90.5781 22.2814 91.8594 21.3283 92.7344C21.3283 92.7344 19.672 94.4063 18.4845 96.2344C16.9533 98.5938 18.2345 101.906 18.2345 101.906C18.2345 101.906 23.0783 101.469 25.0314 99.75C27.0002 98.0156 28.547 96.1719 30.5783 93.875C32.5158 91.6875 33.2502 91.3438 34.4377 91.8594C35.6252 92.3594 35.5314 93.1719 34.547 94.875C34.547 94.875 29.8752 99.9531 28.9064 103.234C28.2345 105.5 30.7345 108.578 30.7345 108.578C30.7345 108.578 35.3127 107.172 37.4845 104.391C37.4845 104.391 41.4533 99.7344 42.8752 98.0156C44.3127 96.2969 45.7345 94.2188 47.7345 94.4062C49.1095 94.5312 49.3127 95.5781 48.4533 97.3438C48.4533 97.3438 44.0627 103.469 42.5002 106.938C40.6564 111.031 42.797 115.297 42.797 115.297C42.797 115.297 48.4845 115.125 51.1252 111.688C55.3908 106.125 54.8908 106.156 56.8127 103.703C59.0783 100.797 61.9845 98.2188 63.3283 99.1406C65.3127 100.5 63.0783 102.219 62.4064 103.281C62.4064 103.281 55.9689 111.656 54.7345 114.938C52.9064 119.766 54.9377 125 54.9377 125C54.9377 125 60.5627 124.531 65.0158 119.25C65.797 118.328 66.4689 117.5 67.0939 116.75L70.6252 119.109C68.9533 122.063 67.7189 125.094 66.547 128.781C69.3908 127.828 82.922 132.625 82.922 132.625L126.672 132.734C126.953 131.109 127.016 129.531 126.922 127.984L129 128L143.969 128.578C143.969 128.578 147.016 122.797 149.813 121.547C150.188 121.375 150.297 120.922 150.031 120.609C147.625 117.891 144.75 114.578 141.485 112.859C138.656 111.375 135.688 111.875 134.141 108.328C132.516 104.625 133.078 100.859 130.11 97.75C129.86 97.4688 129.578 97.2031 129.281 96.9531Z" fill="url(#paint2_radial_735_373)"/>
<path d="M117.109 89.2506C115.422 88.3287 114.766 87.0319 115.984 86.0631C116.531 85.6256 118.688 86.5006 122.656 87.5787C127.781 88.9694 130.844 89.8444 134.078 89.7037C140.625 89.4381 141.562 83.7662 141.562 83.7662C141.562 83.7662 140.766 81.3756 134.672 80.9537C132.313 80.7975 128.094 79.9225 124.719 78.9537C121.594 78.0631 118.984 76.3756 120.547 74.86C121.484 73.9537 123.406 74.7975 125.547 75.1725C130.234 76.0006 134.063 76.9225 137.016 77.0006C143.234 77.1725 145.359 73.235 145.359 73.235C145.359 73.235 144.547 69.5787 139.75 68.3912C137.188 67.7506 134.375 67.3444 129.234 66.2506C126.25 65.6256 126.438 64.7037 127.328 63.9069C128.531 62.8287 131 63.0943 132.516 63.2193C136.172 63.5475 140.75 64.6412 143.266 64.7975C147.609 65.0631 149.859 61.8131 149.859 61.8131C149.859 61.8131 149.703 58.11 145.484 56.7818C141.484 55.5162 140.531 56.0475 137.391 54.8912C135.391 54.1569 134.688 53.3131 135.484 52.5944C136.219 51.9381 137.797 51.9225 140.844 52.1725C144.922 52.5006 148.094 53.2194 151.188 53.5006C156.516 53.985 158.047 50.5944 158.047 50.5944C158.047 50.5944 157.563 47.7037 153.781 46.5475C151.969 45.985 149.984 45.7819 146.875 44.8756C145.625 44.5162 145.422 43.8287 145.938 43.0162C146.453 42.2194 147.875 42.0475 149.875 42.2506C153.344 42.61 154.578 42.9069 157.016 43.2819C161.859 44.0475 164.281 41.9225 164.281 41.9225C164.281 41.9225 164.859 39.0319 162.094 38.0475C159.547 37.1412 157.781 37.0631 155.938 36.5787C154.094 36.0944 154.313 35.3131 154.922 34.8756C157.016 33.36 163.297 35.735 165.453 35.9694C169.125 36.3756 171.125 34.2194 171.125 34.2194C171.125 34.2194 171.688 31.5162 169.031 30.5944C166.906 29.86 164.953 29.7819 166.109 28.7194C166.672 28.2037 168.625 28.0319 169.641 28.11C172.734 28.3287 173.922 28.6569 175.406 28.2662C176.797 27.9069 178.641 26.5631 179.672 25.5475C177.422 24.0631 174.828 23.6412 172.203 23.235C169.281 22.7819 167.641 26.11 166.188 25.6412C165.469 25.4069 167.078 22.8912 165.422 23.0631C164.438 23.1725 162.312 23.6881 161.484 26.0631C160.75 28.1569 160.609 31.2506 158.484 30.8287C157.172 30.5787 157.703 29.0944 157.891 28.0475C158.406 25.235 157.188 24.7975 157.188 24.7975C157.188 24.7975 152.828 24.7194 151.359 29.2975C150.578 31.7194 150.141 35.9537 148.141 35.8912C146.438 35.8444 147.109 33.8912 147.078 32.1881C147.031 29.4694 144.516 29.1412 144.516 29.1412C144.516 29.1412 140.344 29.9694 140.109 33.485C140.016 34.8287 139.953 37.3756 139.953 40.36C139.953 42.9069 139.313 44.9225 138.344 45.36C136.469 46.2194 136.406 43.8131 136.25 41.3131C136.094 38.8287 136.172 37.4069 135.781 36.3287C135.203 34.7662 132 34.9069 132 34.9069C132 34.9069 128.5 37.5475 128.641 40.4225C128.75 42.6725 129.109 46.0319 129.344 47.3756C129.75 49.735 129.719 52.9381 128.328 54.1881C126.969 55.4068 126 51.6256 124.969 46.0006C124.047 40.9381 120.172 41.5787 120.172 41.5787C120.172 41.5787 116.469 44.36 117.047 48.735C117.469 51.985 118.172 54.3444 118.766 56.2819C120.234 61.0944 120.469 62.8287 120.016 63.9225C118.203 68.2975 115.984 60.9693 114.016 54.985C112.656 50.8443 109 51.3287 109 51.3287C109 51.3287 105.781 54.3756 106.5 58.1412C107.688 64.4068 109.781 67.9381 111.141 70.2506C113.672 74.5943 114.203 76.5162 113.734 77.6569C113.219 78.8912 110.859 77.6412 109.016 74.5944C107.047 71.2975 106.172 69.3131 104.766 65.2662C103.563 61.8287 102.203 62.2662 102.203 62.2662C102.203 62.2662 99.2188 66.5318 100.688 71.3131C103.625 80.8443 109.469 85.5319 110.016 86.0631C111.328 87.3131 109.516 87.4068 106.938 86.2037C104.125 84.8912 100.266 77.7506 100.266 77.7506C100.266 77.7506 99.0938 81.5162 101.312 86.4225C103.891 92.11 107.75 92.7975 110.141 93.3912C112.938 94.0944 113.969 93.6569 115.375 95.3756C121.219 102.594 129.703 101.454 131.125 101.454C138.047 101.454 138.812 96.61 138.812 96.61C138.812 96.61 137.781 94.4225 133.25 93.6412C131.453 93.3287 129.562 93.5162 123.75 91.8287C121.75 91.2819 119.031 90.2975 117.109 89.2506ZM93.0156 56.2506C93.0156 56.2506 89.3125 57.7819 88.8125 60.7819C88.2031 63.8287 88.0781 72.8287 86.4844 76.3756C85.4375 78.6881 83.5938 77.235 84.3125 73.4694C85.2344 68.6881 86.3438 62.5944 85.6094 57.5475C85 53.3912 81.4688 50.7819 81.4688 50.7819C81.4688 50.7819 77.9219 51.2819 77.5469 53.4694C76.9219 57.1412 77.1094 60.3756 76.8906 62.8444C76.7344 64.5631 76.75 67.6412 74.5781 67.0631C73.1875 66.7037 73.5781 62.5162 73.625 61.2506C73.7188 58.2975 74.25 56.9069 74.2031 51.2975C74.1563 46.7819 69.2969 44.3131 69.2969 44.3131C69.2969 44.3131 66.5 45.0475 66.0625 47.7975C65.4062 51.985 65.8438 56.5943 63.2969 55.7975C61.6406 55.2818 62.9219 48.6569 62.4531 45.1881C61.9844 41.6256 58.7812 39.5319 58.7812 39.5319C58.7812 39.5319 55.7344 39.61 55.5 42.8287C55.2969 45.7662 55.7344 49.9225 53.1094 50.0162C50.5156 50.11 51.8594 45.6725 51.1094 40.5631C50.5625 36.8443 46.4219 35.3912 46.4219 35.3912C46.4219 35.3912 43.1562 35.9069 43.1875 38.5319C43.2031 39.5319 43.0156 42.1569 41.375 41.8131C39.8906 41.5006 39.2656 39.3756 38.9062 38.1569C38.4531 36.6569 38.0938 35.6412 36.9063 34.5006C35.5313 33.1725 31.5937 31.9381 31.4531 32.0006C31.2187 32.11 30.875 35.3444 31.3594 36.6256C32.0781 38.5631 33.4062 39.61 34.5781 41.1881C36.0625 43.1725 33.75 42.8287 32.1563 43.8287C30.2656 45.0162 29.8125 47.1569 29.8125 47.1569C29.8125 47.1569 32 49.0162 34.2344 49.1725C36.3594 49.3287 38.3438 48.6725 40.2813 48.0944C42.7813 47.3287 45.1875 46.735 45.9844 47.9069C47.2031 49.6725 43.0469 49.7819 40.1094 52.1881C38.2813 53.6881 38.0937 56.2193 38.0937 56.2193C38.0937 56.2193 42.6719 59.2194 44.9688 58.4069C49.4219 56.8131 51 55.485 53.1406 54.7975C55.5938 54.0006 58.3281 55.2662 55.5 57.2506C53.4688 58.6881 50.9688 60.0787 49.3281 61.735C47.3125 63.7506 47.4844 66.4225 47.4844 66.4225C47.4844 66.4225 50.7812 68.9069 53.5312 68.2819C58.0625 67.2506 60.875 65.0631 63.2813 63.9225C66.1719 62.5631 67.3594 62.9069 68.3438 63.7037C69.4063 64.5787 67.375 65.4537 64.8438 66.7506C61.9219 68.2506 58.7031 70.9068 57.5 72.2037C55.9375 73.8912 56.0938 79.86 56.0938 79.86C56.0938 79.86 61 81.6725 65.0938 79.7819C69.4063 77.7975 73.9375 73.2506 75.8594 73.9381C78.8281 74.985 76.5781 76.6569 72.3438 80.0631C69.125 82.6569 66.3281 84.5319 64.3125 86.7819C62.4219 88.8912 62.5313 94.2975 62.5313 94.2975C62.5313 94.2975 65 95.7662 68.6562 95.4537C73.3438 95.0631 79.3906 87.0943 81.6875 84.9537C83.1875 83.5631 84.5938 85.4069 82.0312 90.1569C78.0781 97.5006 76.2344 97.4693 74.25 103.11C72.7188 107.501 75.2969 111.735 75.2969 111.735C75.2969 111.735 79.3438 112.766 82.0938 110.829C84.2813 109.297 85.8594 106.313 87.4375 102.047C87.8125 101.047 88.5625 98.6412 88.4844 92.3912C88.4375 87.7506 87.5938 88.985 90.0156 84.8287C95.6719 75.1256 97.3438 70.735 96.5625 63.3912C96.1094 58.9537 93.0156 56.2506 93.0156 56.2506Z" fill="#73B03E"/>
<path d="M116.078 101.001C116.078 101.001 107.906 103.407 105.187 105.751C102.469 108.11 99.4375 112.267 96.1875 113.438C92.9375 114.61 90.6562 114.329 90.6562 114.329C90.6562 114.329 92.5312 106.938 97.5625 103.345C102.641 99.704 110.266 98.1259 116.078 101.001Z" fill="#A1D65C"/>
<path d="M69.2031 120.141H146.422V133.734H69.2031V120.141Z" fill="url(#paint3_linear_735_373)"/>
<path d="M175.5 165.75C175.859 164.469 175.672 162.766 175.719 160.188C175.75 158.688 176.625 158.657 179.172 161.235C180.297 162.375 182.375 162.563 182.375 162.563C182.625 157.782 180.562 156.375 177.266 154.516C174.359 152.891 171.531 152.297 172.828 150.485C173.25 149.891 175.203 150.844 176.203 151.235C182.094 153.563 182.609 151.766 182.609 151.766C182.609 151.766 182.219 147.203 176.25 145.11C173.375 144.11 168.484 143.391 168.547 141.938C168.609 140.032 171.328 140.75 172.922 141.141C180.984 143.078 181.719 141.844 181.719 141.844C181.719 141.844 180.078 135.235 172.484 133.922C168.734 133.282 162.047 132.688 161.719 130.907C161.375 129.016 168.656 130.094 171.562 130.563C175.609 131.219 176.781 130.172 176.781 130.172C176.781 130.172 175.031 124 166.469 123.266C160.156 122.735 156.047 123.578 155.031 121.985C154.125 120.532 159.953 120.172 165.578 120.594C170 120.922 172.391 120.813 172.391 120.813C172.391 120.813 170.703 114.547 161.438 113.907C152.219 113.266 143.719 115.703 144.781 113.891C145.906 111.985 149.609 111.688 154.297 111.453C156.688 111.344 159.641 111.422 161.203 111.219C164.859 110.75 165.984 109.266 165.984 109.266C165.984 109.266 162.109 105.625 156.484 104.641C151.531 103.782 147.375 104.469 141.547 105.844C138.344 106.594 134.5 107.688 133.422 106.782C132.719 106.203 135.453 104.516 138.359 103.813C140.766 103.235 145.375 102.797 148.594 102.532C150.625 102.375 151.938 101.703 151.938 101.703C151.938 101.703 151.094 101.016 149.578 100.25C146.766 98.8285 141.984 97.5628 137.344 98.5003C134.547 99.0628 132.437 99.5785 130.219 101.282C127.937 103.032 126.641 104.657 123.859 104.563C121.078 104.485 119.484 103.344 114.484 105.016C112.312 105.75 107.938 108.907 104.484 112.891C100.891 117.047 101.641 120.922 101.641 120.922C101.641 120.922 105.422 122.047 109.234 119.922C114.594 116.938 121 108.375 123.734 108.688C127 109.063 122.484 112.344 120.359 114.625C115.562 119.75 113.328 124.313 112.688 128.157C112.109 131.641 113.484 133.328 113.484 133.328C113.484 133.328 118.375 132.625 120.469 129.735C123.5 125.532 126.734 121.578 128.844 118.657C131.438 115.063 132.938 113.891 134.25 113.328C136.812 112.235 138.859 112.985 135.156 117.219C130.734 122.266 126.953 127.797 125.969 131.688C125.016 135.422 126.859 138.594 126.859 138.594C126.859 138.594 131.391 137.016 133.391 134.453C137.391 129.313 138.719 126.36 140.875 123.157C142.563 120.641 144.516 118.625 146.422 119.172C148.469 119.766 146.344 122.235 143.812 125.985C141.656 129.157 139.219 133.75 138.547 137.11C137.656 141.61 139.016 143.797 139.016 143.797C139.016 143.797 144.453 142.922 146.063 140.453C147.453 138.344 150.047 132.985 151.859 130.485C153.359 128.407 154.688 125.766 156.531 126.86C157.5 127.438 156.547 129.625 154.5 132.953C152.922 135.516 151.125 138.907 150.266 141.75C149.375 144.688 150.641 147.938 150.641 147.938C150.641 147.938 155.094 148.141 156.906 144.688C158.422 141.813 159.766 139.375 160.859 137.625C163.203 133.891 164.641 136.5 162.891 139.782C161.031 143.266 159.734 145.594 158.828 148.985C158.266 151.094 159.297 153.922 159.297 153.922C159.297 153.922 162.094 154.11 163.688 152.078C166.484 148.516 166.406 145.922 168.047 147.391C169.219 148.453 166.516 152.188 165.047 154.907C163.578 157.641 164.234 160.797 164.234 160.797C164.234 160.797 167.688 162.016 169.188 159C171.906 153.563 173.172 155.672 172.438 158.141C172.203 158.953 171.094 162.532 170.859 163.36C169.562 167.75 171.984 169.625 171.984 169.625C171.984 169.625 174.656 168.719 175.5 165.75ZM34.8125 170.407C34.375 169.547 33.3906 167.594 34.8594 166.828C36.5312 165.938 37.1562 168.672 38.6875 170.282C41.2969 173 43.6406 171.75 43.6406 171.75C43.6406 171.75 45.3906 169.25 43.9219 165.688C42.5 162.25 39.4375 159.86 40.6719 158.235C41.3594 157.328 43.3438 156.641 46.0156 161.719C48.4844 166.407 52.4062 165.532 52.4062 165.532C52.4062 165.532 55.125 162.203 53.1719 157.141C51.8125 153.641 48.9844 150.594 49.5938 148.891C50.3281 146.828 52.1406 146.907 53.9062 149.969C55.0156 151.875 56.125 154.219 57.5312 156.094C60.25 159.75 64.125 159.469 64.125 159.469C64.125 159.469 66.1406 156.032 64.5625 151.016C63.7656 148.485 62.9375 146.453 61.0781 142.891C60.1562 141.141 58.5156 138.735 59.7656 137.282C60.9688 135.891 62.7031 137.641 64.125 139.782C67.5156 144.891 67.6406 146.391 69.3594 149.11C71.875 153.063 77.2812 152.907 77.2812 152.907C77.2812 152.907 79.3281 148.891 78.5312 144.907C77.5469 140.063 76.375 136.594 73.5781 132.203C72.3281 130.25 70.9062 127.735 72.0469 126.969C73.1406 126.25 74.8281 127.016 76.8438 130.078C79.5781 134.219 81.7031 138.25 83.6094 141.688C85.8437 145.719 91.2969 146.375 91.2969 146.375C91.2969 146.375 93.4844 144.047 91.5625 136.922C90.0938 131.485 88.0625 128.063 86.7344 125.61C85.0937 122.61 82.2344 120.61 84.0625 119.782C85.75 119.016 87.9688 121 90.3906 124.797C92.8906 128.719 93.5156 131.703 96.4375 135.75C98.8281 139.078 104.437 138.563 104.437 138.563C104.437 138.563 105.219 135.375 104.609 132.266C103.984 129.032 102 125.297 98.875 121.719C91.8906 113.719 87.4375 117.032 87 115.532C86.7969 114.828 87.1875 112.672 85.4688 109.703C83 105.453 76.9688 101.453 70.1562 101.516C67.4219 101.547 62.5312 102.391 60.3437 103.922C60.3437 103.922 60.5937 106.313 63.5469 107.61C67.0312 109.157 74.0156 110.516 76.9844 113.266C78.9531 115.078 80.1875 117.203 78.0781 116.344C77.2031 115.985 74.2188 113.875 71.0938 112.766C67.8281 111.61 64.5312 111.11 60.6094 110.985C54.75 110.797 50.1875 113.235 50.1875 113.235C50.1875 113.235 50.5 114.735 53.9531 116.5C56.0312 117.563 62.4531 118.516 64.9062 119.719C66.9219 120.703 68.7188 121.407 67.5781 122.547C66.8594 123.266 65.7344 123.032 64.7969 122.672C60.4531 120.985 53.7969 120.125 50.25 119.985C45.3281 119.797 41.7969 123.032 41.7969 123.032C41.7969 123.032 41.7656 125.703 45.3438 126.907C50.5312 128.641 58.2031 128.328 59.9531 130.297C61.6562 132.235 57.4062 132.547 53.4688 131.813C49.2031 131 47 130.75 39.5156 131.875C34.4531 132.625 31.8906 136.125 31.8906 136.125C31.8906 136.125 33.25 139.125 35.9844 139.391C41.4375 139.938 52.9062 138.953 52.0625 141.188C51.2969 143.203 48.9062 143.047 46.4531 142.875C41.9844 142.578 38.0156 142.36 33.75 143.36C28.625 144.563 26.8281 148.813 26.8281 148.813C26.8281 148.813 28.1094 151.016 31.1406 151.063C36.7031 151.157 43.625 149.235 45.0312 150.5C47.0156 152.297 42.5 152.969 40.0938 153.078C37.0781 153.219 31.5469 153.625 28.4687 155.141C24.3906 157.141 24 160.297 24 160.297C24 160.297 24.8906 161.922 29.0625 161.61C30.1719 161.532 34.25 160.219 35.8281 160.516C38.3281 161 36.1875 162.516 33.4219 163.235C32.6094 163.438 29.1406 164.235 27.625 165.063C26.0469 165.922 23.5 166.782 22.9375 171.625C22.9375 171.625 24.6406 172.36 27.8125 171.391C29.2969 170.938 30.6094 169.907 31.375 170.657C32.125 171.407 30.3438 173.594 30.1406 175.844C29.7031 180.453 32.3906 182.453 32.3906 182.453C32.3906 182.453 35.4375 180.532 35.9531 176.86C36.4531 172.969 35.1563 171.094 34.8125 170.407Z" fill="#A1D65C"/>
<defs>
<linearGradient id="paint0_linear_735_373" x1="102.761" y1="92.5406" x2="103.915" y2="40.4578" gradientUnits="userSpaceOnUse">
<stop offset="0.365" stop-color="#1B5E20"/>
<stop offset="0.95" stop-color="#2E7D32"/>
</linearGradient>
<radialGradient id="paint1_radial_735_373" cx="0" cy="0" r="1" gradientUnits="userSpaceOnUse" gradientTransform="translate(133.544 111.487) scale(43.2562 43.2562)">
<stop offset="0.209" stop-color="#1B5E20"/>
<stop offset="0.74" stop-color="#2E7D32"/>
</radialGradient>
<radialGradient id="paint2_radial_735_373" cx="0" cy="0" r="1" gradientUnits="userSpaceOnUse" gradientTransform="translate(99.0017 126.038) scale(52.3969 52.3969)">
<stop offset="0.209" stop-color="#1B5E20"/>
<stop offset="0.74" stop-color="#2E7D32"/>
</radialGradient>
<linearGradient id="paint3_linear_735_373" x1="107.809" y1="131.116" x2="107.809" y2="119.994" gradientUnits="userSpaceOnUse">
<stop stop-color="#5D4037"/>
<stop offset="1" stop-color="#5D4037" stop-opacity="0"/>
</linearGradient>
</defs>
</svg>
